<?xml version="1.0" encoding="utf-8"?>
<svg height="769" version="1.1" width="700" xmlns="http://www.w3.org/2000/svg" xmlns:svg="http://www.w3.org/2000/svg" xmlns:xlink="http://www.w3.org/1999/xlink">
	<defs/>
	<script id="script_0" type="text/ecmascript">function bringToFront(evt) { var p = evt.target.parentNode.parentNode; var c = evt.target.parentNode; p.removeChild(c); p.appendChild(c); }</script>
	<script id="script_0" type="text/ecmascript">
function toggleVisibility(cls) {
    var found = document.getElementsByClassName(cls);
    for(var idx=0; idx&lt;found.length; idx++) {
        if (found[idx].getAttribute(&quot;visibility&quot;) == &quot;hidden&quot;) {
            found[idx].setAttribute(&quot;visibility&quot;,&quot;visible&quot;);
        } else {
            found[idx].setAttribute(&quot;visibility&quot;,&quot;hidden&quot;);
        }
    }
}
</script>
	<g>
		<title>0_0</title>
		<path d="M37.5 100.0 37.5 172.1687836487032 100.0 208.2531754730548 162.5 172.1687836487032 162.5 99.99999999999999 100.0 63.91560817564839Z" fill="#E0E0E0" onclick="toggleVisibility(&quot;0_0&quot;)" stroke="(128, 128, 128)" stroke-width="4" style="stroke:grey;stroke-width:3;"/>
	</g>
	<g>
		<title>0_1</title>
		<path d="M100.0 208.2531754730548 100.0 280.421959121758 162.5 316.5063509461096 225.0 280.421959121758 225.0 208.2531754730548 162.5 172.1687836487032Z" fill="#E0E0E0" onclick="toggleVisibility(&quot;0_1&quot;)" stroke="(128, 128, 128)" stroke-width="4" style="stroke:grey;stroke-width:3;"/>
	</g>
	<g>
		<title>0_2</title>
		<path d="M37.5 316.5063509461096 37.5 388.6751345948128 100.0 424.7595264191644 162.5 388.6751345948128 162.5 316.5063509461096 100.0 280.421959121758Z" fill="#E0E0E0" onclick="toggleVisibility(&quot;0_2&quot;)" stroke="(128, 128, 128)" stroke-width="4" style="stroke:grey;stroke-width:3;"/>
	</g>
	<g>
		<title>0_3</title>
		<path d="M100.0 424.7595264191644 100.0 496.9283100678676 162.5 533.0127018922192 225.0 496.9283100678676 225.0 424.7595264191644 162.5 388.6751345948128Z" fill="#E0E0E0" onclick="toggleVisibility(&quot;0_3&quot;)" stroke="(128, 128, 128)" stroke-width="4" style="stroke:grey;stroke-width:3;"/>
	</g>
	<g>
		<title>1_0</title>
		<path d="M162.5 100.0 162.5 172.1687836487032 225.0 208.2531754730548 287.5 172.1687836487032 287.5 99.99999999999999 225.0 63.91560817564839Z" fill="#E0E0E0" onclick="toggleVisibility(&quot;1_0&quot;)" stroke="(128, 128, 128)" stroke-width="4" style="stroke:grey;stroke-width:3;"/>
	</g>
	<g>
		<title>A</title>
		<path d="M188.9156081756484,136.0843918243516 A36.084391824351606,36.084391824351606,0,1,1,234.04874337824788,171.0158042866032 L225.0,136.0843918243516 z" onclick="toggleVisibility(&quot;1_0&quot;)" style="fill:green;"/>
	</g>
	<g>
		<title>B</title>
		<path d="M234.04874337824788,171.0158042866032 A36.084391824351606,36.084391824351606,0,0,1,205.13143865607083,166.2062045761741 L225.0,136.0843918243516 z" onclick="toggleVisibility(&quot;1_0&quot;)" style="fill:blue;"/>
	</g>
	<g>
		<title>C</title>
		<path d="M205.13143865607083,166.2062045761741 A36.084391824351606,36.084391824351606,0,0,1,188.9156081756484,136.0843918243516 L225.0,136.0843918243516 z" onclick="toggleVisibility(&quot;1_0&quot;)" style="fill:red;"/>
	</g>
	<g>
		<title>HillTown (A)</title>
		<circle cx="275.51814855409225" cy="136.0843918243516" fill="green" r="7.216878364870322"/>
	</g>
	<g>
		<title>FunnyTown (A)</title>
		<circle cx="252.29507215196526" cy="178.5939480388352" fill="green" r="7.216878364870322"/>
	</g>
	<g>
		<title>1_1</title>
		<path d="M225.0 208.2531754730548 225.0 280.421959121758 287.5 316.5063509461096 350.0 280.421959121758 350.0 208.2531754730548 287.5 172.1687836487032Z" fill="#E0E0E0" onclick="toggleVisibility(&quot;1_1&quot;)" stroke="(128, 128, 128)" stroke-width="4" style="stroke:grey;stroke-width:3;"/>
	</g>
	<g>
		<title>1_2</title>
		<path d="M162.5 316.5063509461096 162.5 388.6751345948128 225.0 424.7595264191644 287.5 388.6751345948128 287.5 316.5063509461096 225.0 280.421959121758Z" fill="#E0E0E0" onclick="toggleVisibility(&quot;1_2&quot;)" stroke="(128, 128, 128)" stroke-width="4" style="stroke:grey;stroke-width:3;"/>
	</g>
	<g>
		<title>A</title>
		<path d="M188.9156081756484,352.5907427704612 A36.084391824351606,36.084391824351606,0,1,1,260.998219531822,355.0830356649834 L225.0,352.5907427704612 z" onclick="toggleVisibility(&quot;1_2&quot;)" style="fill:green;"/>
	</g>
	<g>
		<title>B</title>
		<path d="M260.998219531822,355.0830356649834 A36.084391824351606,36.084391824351606,0,0,1,189.48831154878187,358.9941259916149 L225.0,352.5907427704612 z" onclick="toggleVisibility(&quot;1_2&quot;)" style="fill:blue;"/>
	</g>
	<g>
		<title>C</title>
		<path d="M189.48831154878187,358.9941259916149 A36.084391824351606,36.084391824351606,0,0,1,188.9156081756484,352.5907427704612 L225.0,352.5907427704612 z" onclick="toggleVisibility(&quot;1_2&quot;)" style="fill:red;"/>
	</g>
	<g>
		<title>SmallTown (A)</title>
		<circle cx="275.51814855409225" cy="352.5907427704612" fill="green" r="7.216878364870322"/>
	</g>
	<g>
		<title>StrangeTown (A)</title>
		<circle cx="252.29507215196526" cy="395.1002989849448" fill="green" r="7.216878364870322"/>
	</g>
	<g>
		<title>1_3</title>
		<path d="M225.0 424.7595264191644 225.0 496.9283100678676 287.5 533.0127018922192 350.0 496.9283100678676 350.0 424.7595264191644 287.5 388.6751345948128Z" fill="#E0E0E0" onclick="toggleVisibility(&quot;1_3&quot;)" stroke="(128, 128, 128)" stroke-width="4" style="stroke:grey;stroke-width:3;"/>
	</g>
	<g>
		<title>2_0</title>
		<path d="M287.5 100.0 287.5 172.1687836487032 350.0 208.2531754730548 412.5 172.1687836487032 412.5 99.99999999999999 350.0 63.91560817564839Z" fill="#E0E0E0" onclick="toggleVisibility(&quot;2_0&quot;)" stroke="(128, 128, 128)" stroke-width="4" style="stroke:grey;stroke-width:3;"/>
	</g>
	<g>
		<title>A</title>
		<path d="M313.9156081756484,136.0843918243516 A36.084391824351606,36.084391824351606,0,1,1,359.94319148286843,170.77179986341307 L350.0,136.0843918243516 z" onclick="toggleVisibility(&quot;2_0&quot;)" style="fill:green;"/>
	</g>
	<g>
		<title>B</title>
		<path d="M359.94319148286843,170.77179986341307 A36.084391824351606,36.084391824351606,0,0,1,329.50417442958366,165.78295184870967 L350.0,136.0843918243516 z" onclick="toggleVisibility(&quot;2_0&quot;)" style="fill:blue;"/>
	</g>
	<g>
		<title>C</title>
		<path d="M329.50417442958366,165.78295184870967 A36.084391824351606,36.084391824351606,0,0,1,313.9156081756484,136.08439182435163 L350.0,136.0843918243516 z" onclick="toggleVisibility(&quot;2_0&quot;)" style="fill:red;"/>
	</g>
	<g>
		<title>AnyTown (A)</title>
		<circle cx="400.51814855409225" cy="136.0843918243516" fill="green" r="7.216878364870322"/>
	</g>
	<g>
		<title>2_1</title>
		<path d="M350.0 208.2531754730548 350.0 280.421959121758 412.5 316.5063509461096 475.0 280.421959121758 475.0 208.2531754730548 412.5 172.1687836487032Z" fill="#E0E0E0" onclick="toggleVisibility(&quot;2_1&quot;)" stroke="(128, 128, 128)" stroke-width="4" style="stroke:grey;stroke-width:3;"/>
	</g>
	<g>
		<title>2_2</title>
		<path d="M287.5 316.5063509461096 287.5 388.6751345948128 350.0 424.7595264191644 412.5 388.6751345948128 412.5 316.5063509461096 350.0 280.421959121758Z" fill="#E0E0E0" onclick="toggleVisibility(&quot;2_2&quot;)" stroke="(128, 128, 128)" stroke-width="4" style="stroke:grey;stroke-width:3;"/>
	</g>
	<g>
		<title>A</title>
		<path d="M313.9156081756484,352.5907427704612 A36.084391824351606,36.084391824351606,0,1,1,386.0370285586764,354.4389597475706 L350.0,352.5907427704612 z" onclick="toggleVisibility(&quot;2_2&quot;)" style="fill:green;"/>
	</g>
	<g>
		<title>B</title>
		<path d="M386.0370285586764,354.4389597475706 A36.084391824351606,36.084391824351606,0,0,1,314.4681151521755,358.88109192565713 L350.0,352.5907427704612 z" onclick="toggleVisibility(&quot;2_2&quot;)" style="fill:blue;"/>
	</g>
	<g>
		<title>C</title>
		<path d="M314.4681151521755,358.88109192565713 A36.084391824351606,36.084391824351606,0,0,1,313.9156081756484,352.5907427704612 L350.0,352.5907427704612 z" onclick="toggleVisibility(&quot;2_2&quot;)" style="fill:red;"/>
	</g>
	<g>
		<title>BigTown (B)</title>
		<circle cx="400.51814855409225" cy="352.5907427704612" fill="blue" r="7.216878364870322"/>
	</g>
	<g>
		<title>2_3</title>
		<path d="M350.0 424.7595264191644 350.0 496.9283100678676 412.5 533.0127018922192 475.0 496.9283100678676 475.0 424.7595264191644 412.5 388.6751345948128Z" fill="#E0E0E0" onclick="toggleVisibility(&quot;2_3&quot;)" stroke="(128, 128, 128)" stroke-width="4" style="stroke:grey;stroke-width:3;"/>
	</g>
	<g>
		<title>3_0</title>
		<path d="M412.5 100.0 412.5 172.1687836487032 475.0 208.2531754730548 537.5 172.1687836487032 537.5 99.99999999999999 475.0 63.91560817564839Z" fill="#E0E0E0" onclick="toggleVisibility(&quot;3_0&quot;)" stroke="(128, 128, 128)" stroke-width="4" style="stroke:grey;stroke-width:3;"/>
	</g>
	<g>
		<title>3_1</title>
		<path d="M475.0 208.2531754730548 475.0 280.421959121758 537.5 316.5063509461096 600.0 280.421959121758 600.0 208.2531754730548 537.5 172.1687836487032Z" fill="#E0E0E0" onclick="toggleVisibility(&quot;3_1&quot;)" stroke="(128, 128, 128)" stroke-width="4" style="stroke:grey;stroke-width:3;"/>
	</g>
	<g>
		<title>3_2</title>
		<path d="M412.5 316.5063509461096 412.5 388.6751345948128 475.0 424.7595264191644 537.5 388.6751345948128 537.5 316.5063509461096 475.0 280.421959121758Z" fill="#E0E0E0" onclick="toggleVisibility(&quot;3_2&quot;)" stroke="(128, 128, 128)" stroke-width="4" style="stroke:grey;stroke-width:3;"/>
	</g>
	<g>
		<title>3_3</title>
		<path d="M475.0 424.7595264191644 475.0 496.9283100678676 537.5 533.0127018922192 600.0 496.9283100678676 600.0 424.7595264191644 537.5 388.6751345948128Z" fill="#E0E0E0" onclick="toggleVisibility(&quot;3_3&quot;)" stroke="(128, 128, 128)" stroke-width="4" style="stroke:grey;stroke-width:3;"/>
	</g>
	<g>
		<title>A</title>
		<path d="M501.4156081756484,460.843918243516 A36.084391824351606,36.084391824351606,0,0,1,519.740778395159,429.4322423677611 L537.5,460.843918243516 z" onclick="toggleVisibility(&quot;3_3&quot;)" style="fill:green;"/>
	</g>
	<g>
		<title>B</title>
		<path d="M519.740778395159,429.4322423677611 A36.084391824351606,36.084391824351606,0,1,1,512.5501009498398,486.9127860885174 L537.5,460.843918243516 z" onclick="toggleVisibility(&quot;3_3&quot;)" style="fill:blue;"/>
	</g>
	<g>
		<title>C</title>
		<path d="M512.5501009498398,486.9127860885174 A36.084391824351606,36.084391824351606,0,0,1,501.4156081756484,460.843918243516 L537.5,460.843918243516 z" onclick="toggleVisibility(&quot;3_3&quot;)" style="fill:red;"/>
	</g>
	<g>
		<title>SeaTown (B)</title>
		<circle cx="588.0181485540922" cy="460.843918243516" fill="blue" r="7.216878364870322"/>
	</g>
	<g>
		<title>NowhereTown (B)</title>
		<circle cx="564.7950721519653" cy="503.3534744579996" fill="blue" r="7.216878364870322"/>
	</g>
	<text class="1_0" dominant-baseline="middle" style="text-anchor:start;paint-order:stroke;fill:green;stroke-width:10px;stroke:white;" transform="rotate(0.000000,285.518149,136.084392)" visibility="hidden" x="285.51814855409225" y="136.0843918243516">HillTown (A)</text>
	<text class="1_0" dominant-baseline="middle" style="text-anchor:start;paint-order:stroke;fill:green;stroke-width:10px;stroke:white;" transform="rotate(57.295780,257.698095,187.008658)" visibility="hidden" x="257.69809521064667" y="187.0086578869142">FunnyTown (A)</text>
	<text class="1_2" dominant-baseline="middle" style="text-anchor:start;paint-order:stroke;fill:green;stroke-width:10px;stroke:white;" transform="rotate(0.000000,285.518149,352.590743)" visibility="hidden" x="285.51814855409225" y="352.5907427704612">SmallTown (A)</text>
	<text class="1_2" dominant-baseline="middle" style="text-anchor:start;paint-order:stroke;fill:green;stroke-width:10px;stroke:white;" transform="rotate(57.295780,257.698095,403.515009)" visibility="hidden" x="257.69809521064667" y="403.5150088330238">StrangeTown (A)</text>
	<text class="2_0" dominant-baseline="middle" style="text-anchor:start;paint-order:stroke;fill:green;stroke-width:10px;stroke:white;" transform="rotate(0.000000,410.518149,136.084392)" visibility="hidden" x="410.51814855409225" y="136.0843918243516">AnyTown (A)</text>
	<text class="2_2" dominant-baseline="middle" style="text-anchor:start;paint-order:stroke;fill:blue;stroke-width:10px;stroke:white;" transform="rotate(0.000000,410.518149,352.590743)" visibility="hidden" x="410.51814855409225" y="352.5907427704612">BigTown (B)</text>
	<text class="3_3" dominant-baseline="middle" style="text-anchor:start;paint-order:stroke;fill:blue;stroke-width:10px;stroke:white;" transform="rotate(0.000000,598.018149,460.843918)" visibility="hidden" x="598.0181485540922" y="460.843918243516">SeaTown (B)</text>
	<text class="3_3" dominant-baseline="middle" style="text-anchor:start;paint-order:stroke;fill:blue;stroke-width:10px;stroke:white;" transform="rotate(57.295780,570.198095,511.768184)" visibility="hidden" x="570.1980952106467" y="511.7681843060786">NowhereTown (B)</text>
</svg>
