<?xml version="1.0" encoding="utf-8"?>
<svg height="624" version="1.1" width="1580" xmlns="http://www.w3.org/2000/svg" xmlns:svg="http://www.w3.org/2000/svg" xmlns:xlink="http://www.w3.org/1999/xlink">
	<defs/>
	<script id="script_0" type="text/ecmascript">function bringToFront(evt) { var p = evt.target.parentNode.parentNode; var c = evt.target.parentNode; p.removeChild(c); p.appendChild(c); }</script>
	<text font-size="32" style="text-anchor:middle;stroke:purple;" x="790.0" y="132.0">UK General Election 2017</text>
	<text font-size="28" style="text-anchor:middle;font-weight:bold;" x="790.0" y="192.0">Results</text>
	<a href="http://explore.data.parliament.uk/?learnmore=Election%20Results" target="_new">
		<text font-size="20" style="text-anchor:middle;stroke:blue;text-decoration:underline;" x="790.0" y="280.0">source: http://explore.data.parliament.uk/?learnmore=Election Results</text>
	</a>
	<path d="M540.0 300 564.0 300 564.0 324 540.0 324Z" fill="#ed1e0e" stroke="black" stroke-width="2"/>
	<text style="text-anchor:start;alignment-baseline:middle;font-size:24;" x="576.0" y="312.0">Labour</text>
	<path d="M706.6666666666666 300 730.6666666666666 300 730.6666666666666 324 706.6666666666666 324Z" fill="#78c31e" stroke="black" stroke-width="2"/>
	<text style="text-anchor:start;alignment-baseline:middle;font-size:24;" x="742.6666666666666" y="312.0">Green Party</text>
	<path d="M873.3333333333333 300 897.3333333333333 300 897.3333333333333 324 873.3333333333333 324Z" fill="#505050" stroke="black" stroke-width="2"/>
	<text style="text-anchor:start;alignment-baseline:middle;font-size:24;" x="909.3333333333333" y="312.0">Other</text>
	<path d="M540.0 348 564.0 348 564.0 372 540.0 372Z" fill="#65a966" stroke="black" stroke-width="2"/>
	<text style="text-anchor:start;alignment-baseline:middle;font-size:24;" x="576.0" y="360.0">Social Democratic &amp; Labour Party</text>
	<path d="M706.6666666666666 348 730.6666666666666 348 730.6666666666666 372 706.6666666666666 372Z" fill="#ff8400" stroke="black" stroke-width="2"/>
	<text style="text-anchor:start;alignment-baseline:middle;font-size:24;" x="742.6666666666666" y="360.0">Liberal Democrats</text>
	<path d="M873.3333333333333 348 897.3333333333333 348 897.3333333333333 372 873.3333333333333 372Z" fill="#505050" stroke="black" stroke-width="2"/>
	<text style="text-anchor:start;alignment-baseline:middle;font-size:24;" x="909.3333333333333" y="360.0">Alliance Party</text>
	<path d="M540.0 396 564.0 396 564.0 420 540.0 420Z" fill="#000000" stroke="black" stroke-width="2"/>
	<text style="text-anchor:start;alignment-baseline:middle;font-size:24;" x="576.0" y="408.0">Speaker</text>
	<path d="M706.6666666666666 396 730.6666666666666 396 730.6666666666666 420 706.6666666666666 420Z" fill="#4b6b3f" stroke="black" stroke-width="2"/>
	<text style="text-anchor:start;alignment-baseline:middle;font-size:24;" x="742.6666666666666" y="408.0">Plaid Cymru</text>
	<path d="M873.3333333333333 396 897.3333333333333 396 897.3333333333333 420 873.3333333333333 420Z" fill="#ebc31c" stroke="black" stroke-width="2"/>
	<text style="text-anchor:start;alignment-baseline:middle;font-size:24;" x="909.3333333333333" y="408.0">Scottish National Party</text>
	<path d="M540.0 444 564.0 444 564.0 468 540.0 468Z" fill="#6ab1e6" stroke="black" stroke-width="2"/>
	<text style="text-anchor:start;alignment-baseline:middle;font-size:24;" x="576.0" y="456.0">Ulster Unionist Party</text>
	<path d="M706.6666666666666 444 730.6666666666666 444 730.6666666666666 468 706.6666666666666 468Z" fill="#c0153d" stroke="black" stroke-width="2"/>
	<text style="text-anchor:start;alignment-baseline:middle;font-size:24;" x="742.6666666666666" y="456.0">Democratic Unionist Party</text>
	<path d="M873.3333333333333 444 897.3333333333333 444 897.3333333333333 468 873.3333333333333 468Z" fill="#00623f" stroke="black" stroke-width="2"/>
	<text style="text-anchor:start;alignment-baseline:middle;font-size:24;" x="909.3333333333333" y="456.0">Sinn Fein</text>
	<path d="M540.0 492 564.0 492 564.0 516 540.0 516Z" fill="#712f87" stroke="black" stroke-width="2"/>
	<text style="text-anchor:start;alignment-baseline:middle;font-size:24;" x="576.0" y="504.0">UK Independence Party</text>
	<path d="M706.6666666666666 492 730.6666666666666 492 730.6666666666666 516 706.6666666666666 516Z" fill="#0575c9" stroke="black" stroke-width="2"/>
	<text style="text-anchor:start;alignment-baseline:middle;font-size:24;" x="742.6666666666666" y="504.0">Conservative</text>
</svg>
