<?xml version="1.0" encoding="utf-8"?>
<svg height="916" version="1.1" width="1224" xmlns="http://www.w3.org/2000/svg" xmlns:svg="http://www.w3.org/2000/svg" xmlns:xlink="http://www.w3.org/1999/xlink">
	<defs>
		<linearGradient id="lg_0">
			<stop offset="0%" stop-color="green"/>
			<stop offset="100%" stop-color="red"/>
		</linearGradient>
		<linearGradient id="lg_1">
			<stop offset="0%" stop-color="green"/>
			<stop offset="100%" stop-color="blue"/>
		</linearGradient>
		<linearGradient id="lg_2">
			<stop offset="0%" stop-color="blue"/>
			<stop offset="100%" stop-color="green"/>
		</linearGradient>
		<linearGradient id="lg_3">
			<stop offset="0%" stop-color="blue"/>
			<stop offset="100%" stop-color="red"/>
		</linearGradient>
	</defs>
	<script id="script_0" type="text/ecmascript">function bringToFront(evt) { var p = evt.target.parentNode.parentNode; var c = evt.target.parentNode; p.removeChild(c); p.appendChild(c); }</script>
	<text style="text-anchor:middle;font-size:32;stroke:purple;" x="612.0" y="132.0">Election Results</text>
	<text style="text-anchor:middle;font-size:28;font-weight:bold;" x="612.0" y="192.0">Seats changing party, 2009 election - 2011 election</text>
	<text style="text-anchor:start;font-size:16;" x="100.0" y="220">2009</text>
	<text style="text-anchor:end;font-size:16;" x="1124.0" y="220">2011</text>
	<g>
		<g>
			<title>The A Party=&gt;C Party(1 seats)</title>
			<path d="M100.0 236.0 C 200.0 236.0 1024.0 300.0 1124.0 300.0 L 1124.0 364.0 C 1024.0 364.0 200.0 300.0 100.0 300.0Z" fill="grey" onclick="bringToFront(evt);" style="fill:url(#lg_0);"/>
		</g>
		<g>
			<title>The A Party=&gt;The B Party(4 seats)</title>
			<path d="M100.0 300.0 C 200.0 300.0 1024.0 492.0 1124.0 492.0 L 1124.0 748.0 C 1024.0 748.0 200.0 556.0 100.0 556.0Z" fill="grey" onclick="bringToFront(evt);" style="fill:url(#lg_1);"/>
		</g>
		<g>
			<title>The B Party=&gt;The A Party(1 seats)</title>
			<path d="M100.0 556.0 C 200.0 556.0 1024.0 236.0 1124.0 236.0 L 1124.0 300.0 C 1024.0 300.0 200.0 620.0 100.0 620.0Z" fill="grey" onclick="bringToFront(evt);" style="fill:url(#lg_2);"/>
		</g>
		<g>
			<title>B=&gt;C(2 seats)</title>
			<path d="M100.0 620.0 C 200.0 620.0 1024.0 364.0 1124.0 364.0 L 1124.0 492.0 C 1024.0 492.0 200.0 748.0 100.0 748.0Z" fill="grey" onclick="bringToFront(evt);" style="fill:url(#lg_3);"/>
		</g>
	</g>
	<path d="M100.0 768 124.0 768 124.0 792 100.0 792Z" fill="green" stroke="black" stroke-width="2"/>
	<text style="text-anchor:start;font-size:24;alignment-baseline:middle;" x="136.0" y="780.0">The A Party</text>
	<path d="M441.3333333333333 768 465.3333333333333 768 465.3333333333333 792 441.3333333333333 792Z" fill="blue" stroke="black" stroke-width="2"/>
	<text style="text-anchor:start;font-size:24;alignment-baseline:middle;" x="477.3333333333333" y="780.0">The B Party</text>
	<path d="M782.6666666666666 768 806.6666666666666 768 806.6666666666666 792 782.6666666666666 792Z" fill="red" stroke="black" stroke-width="2"/>
	<text style="text-anchor:start;font-size:24;alignment-baseline:middle;" x="818.6666666666666" y="780.0">C Party</text>
</svg>
